<?xml version="1.0" encoding="utf-8"?>
<!-- Generator: Adobe Illustrator 19.0.0, SVG Export Plug-In . SVG Version: 6.00 Build 0)  -->
<svg version="1.1" id="Layer_1" xmlns="http://www.w3.org/2000/svg" xmlns:xlink="http://www.w3.org/1999/xlink" x="0px" y="0px"
	 viewBox="0 0 200 200" style="enable-background:new 0 0 200 200;" xml:space="preserve">
<style type="text/css">
	.st0{fill:#939393;}
</style>
<g id="XMLID_12_">
	<path id="XMLID_13_" class="st0" d="M169.4,40.1h-47.2c0.1-0.3,0.1-0.6,0.1-0.9V26.5c0-1.9-1.6-3.5-3.5-3.5H81.2
		c-1.9,0-3.5,1.6-3.5,3.5v12.6c0,0.3,0,0.6,0.1,0.9H30.6c-1.9,0-3.5,1.6-3.5,3.5V53c0,1.9,1.6,3.5,3.5,3.5h138.9
		c1.9,0,3.5-1.6,3.5-3.5v-9.4C173,41.6,171.4,40.1,169.4,40.1z"/>
	<path id="XMLID_17_" class="st0" d="M153.4,63.2H46.6c-2.1,0-3.7,1.8-3.5,3.9l11,105.9c0.2,1.8,1.7,3.2,3.5,3.2h84.8
		c1.8,0,3.3-1.4,3.5-3.2l11-105.9C157.2,65,155.5,63.2,153.4,63.2z"/>
</g>
</svg>
