<?xml version="1.0" encoding="utf-8"?>
<!-- Generator: Adobe Illustrator 19.0.0, SVG Export Plug-In . SVG Version: 6.00 Build 0)  -->
<svg version="1.1" id="Layer_1" xmlns="http://www.w3.org/2000/svg" xmlns:xlink="http://www.w3.org/1999/xlink" x="0px" y="0px"
	 viewBox="0 0 200 200" style="enable-background:new 0 0 200 200;" xml:space="preserve">
<style type="text/css">
	.st0{fill:#939292;}
</style>
<path class="st0" d="M164.5,43l-7.6-7.6c-1-1-2.7-1-3.8,0l-51.3,51.3c-1,1-2.7,1-3.8,0L46.8,35.5c-1-1-2.7-1-3.8,0L35.5,43
	c-1,1-1,2.7,0,3.8l51.3,51.3c1,1,1,2.7,0,3.8l-51.3,51.3c-1,1-1,2.7,0,3.8l7.6,7.6c1,1,2.7,1,3.8,0l51.3-51.3c1-1,2.7-1,3.8,0
	l51.3,51.3c1,1,2.7,1,3.8,0l7.6-7.6c1-1,1-2.7,0-3.8l-51.3-51.3c-1-1-1-2.7,0-3.8l51.3-51.3C165.6,45.8,165.6,44.1,164.5,43z"/>
</svg>
