<?xml version="1.0" encoding="utf-8"?>
<!-- Generator: Adobe Illustrator 19.0.0, SVG Export Plug-In . SVG Version: 6.00 Build 0)  -->
<svg version="1.1" id="Layer_1" xmlns="http://www.w3.org/2000/svg" xmlns:xlink="http://www.w3.org/1999/xlink" x="0px" y="0px"
	 viewBox="0 0 200 200" style="enable-background:new 0 0 200 200;" xml:space="preserve">
<style type="text/css">
	.st0{fill:none;stroke:#008080;stroke-width:5;stroke-miterlimit:10;}
	.st1{fill:#919191;}
	.st2{fill:#008080;}
</style>
<g id="XMLID_3_">
	<path id="XMLID_1_" class="st0" d="M148.4,131.7H51.6c-0.4,0-0.6-0.3-0.6-0.6V20.8c0-0.4,0.3-0.6,0.6-0.6h79.7
		c0.2,0,0.3,0.1,0.5,0.2l17,17c0.1,0.1,0.2,0.3,0.2,0.5v93.2C149,131.4,148.7,131.7,148.4,131.7z"/>
	<path id="XMLID_2_" class="st0" d="M131.6,20.2v18.1c0,0.4,0.3,0.6,0.6,0.6H149"/>
</g>
<rect id="XMLID_4_" x="63.6" y="48.9" class="st1" width="72.9" height="3.8"/>
<rect id="XMLID_6_" x="63.6" y="61.4" class="st1" width="72.9" height="3.8"/>
<rect id="XMLID_7_" x="63.6" y="73.1" class="st1" width="58" height="3.8"/>
<rect id="XMLID_10_" x="63.6" y="85.3" class="st1" width="58" height="3.8"/>
<rect id="XMLID_9_" x="63.6" y="100.8" class="st1" width="34" height="3.8"/>
<rect id="XMLID_8_" x="63.6" y="109.5" class="st1" width="72.9" height="3.8"/>
<g id="XMLID_11_">
	<path id="XMLID_12_" class="st2" d="M15.3,160.7v-4.6l-3.4-6.3h1.6l1.5,3c0.4,0.8,0.7,1.5,1.1,2.2h0c0.3-0.7,0.7-1.4,1.1-2.2l1.6-3
		h1.6l-3.6,6.2v4.6H15.3z"/>
	<path id="XMLID_14_" class="st2" d="M27.4,156.7c0,2.9-2,4.1-3.9,4.1c-2.1,0-3.7-1.5-3.7-4c0-2.6,1.7-4.1,3.9-4.1
		C25.9,152.7,27.4,154.4,27.4,156.7z M21.2,156.8c0,1.7,1,3,2.4,3c1.4,0,2.4-1.3,2.4-3c0-1.3-0.7-3-2.3-3
		C21.9,153.8,21.2,155.3,21.2,156.8z"/>
	<path id="XMLID_17_" class="st2" d="M35.7,158.6c0,0.8,0,1.5,0.1,2.1h-1.3l-0.1-1.3h0c-0.4,0.6-1.2,1.4-2.6,1.4
		c-1.2,0-2.7-0.7-2.7-3.4v-4.6h1.4v4.3c0,1.5,0.5,2.5,1.7,2.5c1,0,1.6-0.7,1.9-1.3c0.1-0.2,0.1-0.5,0.1-0.7v-4.8h1.4V158.6z"/>
	<path id="XMLID_19_" class="st2" d="M41.5,149.3h1.4v4.9h0c0.2-0.4,0.6-0.8,1-1c0.4-0.2,0.9-0.4,1.5-0.4c1,0,2.7,0.6,2.7,3.3v4.6
		h-1.4v-4.5c0-1.3-0.5-2.3-1.8-2.3c-0.9,0-1.6,0.6-1.9,1.4c-0.1,0.2-0.1,0.4-0.1,0.7v4.7h-1.4V149.3z"/>
	<path id="XMLID_21_" class="st2" d="M54.8,160.7l-0.1-1h0c-0.4,0.6-1.3,1.2-2.4,1.2c-1.6,0-2.4-1.1-2.4-2.2c0-1.9,1.7-2.9,4.7-2.9
		v-0.2c0-0.6-0.2-1.8-1.8-1.8c-0.7,0-1.5,0.2-2,0.6l-0.3-0.9c0.6-0.4,1.6-0.7,2.6-0.7c2.4,0,3,1.6,3,3.2v2.9c0,0.7,0,1.3,0.1,1.9
		H54.8z M54.5,156.7c-1.5,0-3.3,0.2-3.3,1.8c0,0.9,0.6,1.4,1.3,1.4c1,0,1.7-0.6,1.9-1.3c0-0.1,0.1-0.3,0.1-0.5V156.7z"/>
	<path id="XMLID_24_" class="st2" d="M58.6,152.9l1.5,4.4c0.3,0.7,0.5,1.4,0.6,2h0c0.2-0.6,0.4-1.3,0.7-2l1.5-4.4h1.5l-3.1,7.8h-1.4
		l-3-7.8H58.6z"/>
	<path id="XMLID_26_" class="st2" d="M66.5,157.1c0,1.9,1.3,2.7,2.7,2.7c1,0,1.6-0.2,2.2-0.4l0.2,1c-0.5,0.2-1.4,0.5-2.6,0.5
		c-2.4,0-3.8-1.6-3.8-3.9s1.4-4.2,3.7-4.2c2.5,0,3.2,2.2,3.2,3.7c0,0.3,0,0.5,0,0.7H66.5z M70.6,156.1c0-0.9-0.4-2.3-2-2.3
		c-1.4,0-2.1,1.3-2.2,2.3H70.6z"/>
	<path id="XMLID_29_" class="st2" d="M77.2,155c0-0.8,0-1.5-0.1-2.1h1.3l0.1,1.3h0c0.4-0.7,1.3-1.5,2.6-1.5c1.1,0,2.8,0.6,2.8,3.3
		v4.7h-1.4v-4.5c0-1.3-0.5-2.3-1.8-2.3c-0.9,0-1.7,0.7-1.9,1.5c-0.1,0.2-0.1,0.4-0.1,0.7v4.7h-1.4V155z"/>
	<path id="XMLID_31_" class="st2" d="M93.2,156.7c0,2.9-2,4.1-3.9,4.1c-2.1,0-3.7-1.5-3.7-4c0-2.6,1.7-4.1,3.9-4.1
		C91.6,152.7,93.2,154.4,93.2,156.7z M87,156.8c0,1.7,1,3,2.4,3c1.4,0,2.4-1.3,2.4-3c0-1.3-0.7-3-2.3-3
		C87.7,153.8,87,155.3,87,156.8z"/>
	<path id="XMLID_34_" class="st2" d="M100.1,150.7v2.2h2v1.1h-2v4.2c0,1,0.3,1.5,1.1,1.5c0.4,0,0.6,0,0.8-0.1l0.1,1.1
		c-0.3,0.1-0.7,0.2-1.3,0.2c-0.7,0-1.2-0.2-1.5-0.6c-0.4-0.4-0.5-1.1-0.5-2V154h-1.2v-1.1h1.2V151L100.1,150.7z"/>
	<path id="XMLID_36_" class="st2" d="M108,160.7l-0.1-1h0c-0.4,0.6-1.3,1.2-2.4,1.2c-1.6,0-2.4-1.1-2.4-2.2c0-1.9,1.7-2.9,4.7-2.9
		v-0.2c0-0.6-0.2-1.8-1.8-1.8c-0.7,0-1.5,0.2-2,0.6l-0.3-0.9c0.6-0.4,1.6-0.7,2.6-0.7c2.4,0,3,1.6,3,3.2v2.9c0,0.7,0,1.3,0.1,1.9
		H108z M107.8,156.7c-1.5,0-3.3,0.2-3.3,1.8c0,0.9,0.6,1.4,1.3,1.4c1,0,1.7-0.6,1.9-1.3c0-0.1,0.1-0.3,0.1-0.5V156.7z"/>
	<path id="XMLID_39_" class="st2" d="M111.3,159.3c0.4,0.3,1.2,0.6,1.9,0.6c1,0,1.5-0.5,1.5-1.2c0-0.7-0.4-1-1.4-1.4
		c-1.4-0.5-2.1-1.3-2.1-2.2c0-1.3,1-2.3,2.7-2.3c0.8,0,1.5,0.2,1.9,0.5l-0.4,1c-0.3-0.2-0.9-0.5-1.6-0.5c-0.8,0-1.3,0.5-1.3,1.1
		c0,0.6,0.5,0.9,1.5,1.3c1.4,0.5,2,1.2,2,2.4c0,1.4-1.1,2.3-2.9,2.3c-0.9,0-1.6-0.2-2.2-0.5L111.3,159.3z"/>
	<path id="XMLID_41_" class="st2" d="M119.3,156.5L119.3,156.5c0.2-0.3,0.5-0.6,0.7-0.9l2.3-2.7h1.7l-3,3.2l3.4,4.6h-1.7L120,157
		l-0.7,0.8v2.9h-1.4v-11.4h1.4V156.5z"/>
	<path id="XMLID_43_" class="st2" d="M125.3,159.9c0-0.6,0.4-1,1-1c0.6,0,1,0.4,1,1c0,0.6-0.4,1-1,1
		C125.7,160.9,125.3,160.5,125.3,159.9z"/>
	<path id="XMLID_45_" class="st2" d="M140,160.4c-0.5,0.3-1.5,0.5-2.9,0.5c-3.1,0-5.4-1.9-5.4-5.5c0-3.4,2.3-5.7,5.7-5.7
		c1.4,0,2.2,0.3,2.6,0.5l-0.3,1.1c-0.5-0.3-1.3-0.5-2.2-0.5c-2.5,0-4.2,1.6-4.2,4.5c0,2.7,1.5,4.4,4.2,4.4c0.9,0,1.7-0.2,2.3-0.5
		L140,160.4z"/>
	<path id="XMLID_47_" class="st2" d="M141.8,149.3h1.4v11.4h-1.4V149.3z"/>
	<path id="XMLID_49_" class="st2" d="M147.1,150.7c0,0.5-0.3,0.9-0.9,0.9c-0.5,0-0.9-0.4-0.9-0.9c0-0.5,0.4-0.9,0.9-0.9
		C146.8,149.8,147.1,150.2,147.1,150.7z M145.6,160.7v-7.8h1.4v7.8H145.6z"/>
	<path id="XMLID_52_" class="st2" d="M154.9,160.4c-0.4,0.2-1.2,0.5-2.2,0.5c-2.4,0-3.9-1.6-3.9-4c0-2.4,1.6-4.1,4.2-4.1
		c0.8,0,1.6,0.2,2,0.4l-0.3,1.1c-0.3-0.2-0.9-0.4-1.6-0.4c-1.8,0-2.8,1.3-2.8,2.9c0,1.8,1.2,2.9,2.7,2.9c0.8,0,1.3-0.2,1.7-0.4
		L154.9,160.4z"/>
	<path id="XMLID_54_" class="st2" d="M158,156.5L158,156.5c0.2-0.3,0.5-0.6,0.7-0.9l2.3-2.7h1.7l-3,3.2l3.4,4.6h-1.7l-2.7-3.7
		l-0.7,0.8v2.9h-1.4v-11.4h1.4V156.5z"/>
	<path id="XMLID_56_" class="st2" d="M169.2,150.7v2.2h2v1.1h-2v4.2c0,1,0.3,1.5,1.1,1.5c0.4,0,0.6,0,0.8-0.1l0.1,1.1
		c-0.3,0.1-0.7,0.2-1.3,0.2c-0.7,0-1.2-0.2-1.5-0.6c-0.4-0.4-0.5-1.1-0.5-2V154h-1.2v-1.1h1.2V151L169.2,150.7z"/>
	<path id="XMLID_58_" class="st2" d="M172.9,149.3h1.4v4.9h0c0.2-0.4,0.6-0.8,1-1c0.4-0.2,0.9-0.4,1.4-0.4c1,0,2.7,0.6,2.7,3.3v4.6
		h-1.4v-4.5c0-1.3-0.5-2.3-1.8-2.3c-0.9,0-1.6,0.6-1.9,1.4c-0.1,0.2-0.1,0.4-0.1,0.7v4.7h-1.4V149.3z"/>
	<path id="XMLID_60_" class="st2" d="M182.6,157.1c0,1.9,1.3,2.7,2.7,2.7c1,0,1.6-0.2,2.2-0.4l0.2,1c-0.5,0.2-1.4,0.5-2.6,0.5
		c-2.4,0-3.8-1.6-3.8-3.9s1.4-4.2,3.7-4.2c2.5,0,3.2,2.2,3.2,3.7c0,0.3,0,0.5,0,0.7H182.6z M186.8,156.1c0-0.9-0.4-2.3-2-2.3
		c-1.4,0-2.1,1.3-2.2,2.3H186.8z"/>
	<path id="XMLID_63_" class="st2" d="M18.6,180.1c0-0.5,0.1-1.3,0.1-2v-9.4h1.4v4.9h0c0.5-0.9,1.4-1.4,2.7-1.4c1.9,0,3.3,1.6,3.3,4
		c0,2.8-1.8,4.2-3.5,4.2c-1.1,0-2-0.4-2.6-1.5h0l-0.1,1.3H18.6z M20.1,176.9c0,0.2,0,0.4,0.1,0.5c0.3,1,1.1,1.7,2.1,1.7
		c1.5,0,2.4-1.2,2.4-3c0-1.6-0.8-2.9-2.3-2.9c-1,0-1.9,0.7-2.2,1.7c0,0.2-0.1,0.4-0.1,0.6V176.9z"/>
	<path id="XMLID_66_" class="st2" d="M34.3,177.9c0,0.8,0,1.5,0.1,2.1h-1.3l-0.1-1.3h0c-0.4,0.6-1.2,1.4-2.6,1.4
		c-1.2,0-2.7-0.7-2.7-3.4v-4.6h1.4v4.3c0,1.5,0.5,2.5,1.7,2.5c1,0,1.6-0.7,1.9-1.3c0.1-0.2,0.1-0.5,0.1-0.7v-4.8h1.4V177.9z"/>
	<path id="XMLID_68_" class="st2" d="M38.4,170v2.2h2v1.1h-2v4.2c0,1,0.3,1.5,1.1,1.5c0.4,0,0.6,0,0.8-0.1l0.1,1.1
		c-0.3,0.1-0.7,0.2-1.3,0.2c-0.7,0-1.2-0.2-1.5-0.6c-0.4-0.4-0.5-1.1-0.5-2v-4.3h-1.2v-1.1H37v-1.9L38.4,170z"/>
	<path id="XMLID_70_" class="st2" d="M43.7,170v2.2h2v1.1h-2v4.2c0,1,0.3,1.5,1.1,1.5c0.4,0,0.6,0,0.8-0.1l0.1,1.1
		c-0.3,0.1-0.7,0.2-1.3,0.2c-0.7,0-1.2-0.2-1.5-0.6c-0.4-0.4-0.5-1.1-0.5-2v-4.3h-1.2v-1.1h1.2v-1.9L43.7,170z"/>
	<path id="XMLID_72_" class="st2" d="M54.3,176.1c0,2.9-2,4.1-3.9,4.1c-2.1,0-3.7-1.5-3.7-4c0-2.6,1.7-4.1,3.9-4.1
		C52.8,172.1,54.3,173.7,54.3,176.1z M48.1,176.2c0,1.7,1,3,2.4,3c1.4,0,2.4-1.3,2.4-3c0-1.3-0.7-3-2.3-3
		C48.9,173.1,48.1,174.7,48.1,176.2z"/>
	<path id="XMLID_75_" class="st2" d="M56.1,174.4c0-0.8,0-1.5-0.1-2.1h1.3l0.1,1.3h0c0.4-0.7,1.3-1.5,2.6-1.5c1.1,0,2.8,0.6,2.8,3.3
		v4.7h-1.4v-4.5c0-1.3-0.5-2.3-1.8-2.3c-0.9,0-1.7,0.7-1.9,1.5c-0.1,0.2-0.1,0.4-0.1,0.7v4.7h-1.4V174.4z"/>
	<path id="XMLID_77_" class="st2" d="M68.4,180.1c0-0.5,0.1-1.3,0.1-2v-9.4h1.4v4.9h0c0.5-0.9,1.4-1.4,2.7-1.4c1.9,0,3.3,1.6,3.3,4
		c0,2.8-1.8,4.2-3.5,4.2c-1.1,0-2-0.4-2.6-1.5h0l-0.1,1.3H68.4z M69.9,176.9c0,0.2,0,0.4,0.1,0.5c0.3,1,1.1,1.7,2.1,1.7
		c1.5,0,2.4-1.2,2.4-3c0-1.6-0.8-2.9-2.3-2.9c-1,0-1.9,0.7-2.2,1.7c0,0.2-0.1,0.4-0.1,0.6V176.9z"/>
	<path id="XMLID_80_" class="st2" d="M78.5,176.4c0,1.9,1.3,2.7,2.7,2.7c1,0,1.6-0.2,2.2-0.4l0.2,1c-0.5,0.2-1.4,0.5-2.6,0.5
		c-2.4,0-3.8-1.6-3.8-3.9s1.4-4.2,3.7-4.2c2.5,0,3.2,2.2,3.2,3.7c0,0.3,0,0.5,0,0.7H78.5z M82.6,175.4c0-0.9-0.4-2.3-2-2.3
		c-1.4,0-2.1,1.3-2.2,2.3H82.6z"/>
	<path id="XMLID_83_" class="st2" d="M85.7,168.6h1.4v11.4h-1.4V168.6z"/>
	<path id="XMLID_85_" class="st2" d="M96.6,176.1c0,2.9-2,4.1-3.9,4.1c-2.1,0-3.7-1.5-3.7-4c0-2.6,1.7-4.1,3.9-4.1
		C95.1,172.1,96.6,173.7,96.6,176.1z M90.4,176.2c0,1.7,1,3,2.4,3c1.4,0,2.4-1.3,2.4-3c0-1.3-0.7-3-2.3-3
		C91.1,173.1,90.4,174.7,90.4,176.2z"/>
	<path id="XMLID_88_" class="st2" d="M98.8,172.3l1,4c0.2,0.9,0.4,1.7,0.6,2.5h0c0.2-0.8,0.4-1.6,0.7-2.5l1.3-4h1.2l1.2,3.9
		c0.3,0.9,0.5,1.8,0.7,2.5h0c0.1-0.8,0.3-1.6,0.6-2.5l1.1-3.9h1.4l-2.5,7.8h-1.3l-1.2-3.7c-0.3-0.9-0.5-1.6-0.7-2.6h0
		c-0.2,0.9-0.4,1.7-0.7,2.6l-1.3,3.7h-1.3l-2.4-7.8H98.8z"/>
	<path id="XMLID_90_" class="st2" d="M115.3,170v2.2h2v1.1h-2v4.2c0,1,0.3,1.5,1.1,1.5c0.4,0,0.6,0,0.8-0.1l0.1,1.1
		c-0.3,0.1-0.7,0.2-1.3,0.2c-0.7,0-1.2-0.2-1.5-0.6c-0.4-0.4-0.5-1.1-0.5-2v-4.3h-1.2v-1.1h1.2v-1.9L115.3,170z"/>
	<path id="XMLID_92_" class="st2" d="M125.9,176.1c0,2.9-2,4.1-3.9,4.1c-2.1,0-3.7-1.5-3.7-4c0-2.6,1.7-4.1,3.9-4.1
		C124.3,172.1,125.9,173.7,125.9,176.1z M119.7,176.2c0,1.7,1,3,2.4,3c1.4,0,2.4-1.3,2.4-3c0-1.3-0.7-3-2.3-3
		C120.4,173.1,119.7,174.7,119.7,176.2z"/>
	<path id="XMLID_95_" class="st2" d="M135.4,180.1l-0.1-1h0c-0.4,0.6-1.3,1.2-2.4,1.2c-1.6,0-2.4-1.1-2.4-2.2c0-1.9,1.7-2.9,4.7-2.9
		v-0.2c0-0.6-0.2-1.8-1.8-1.8c-0.7,0-1.5,0.2-2,0.6l-0.3-0.9c0.6-0.4,1.6-0.7,2.6-0.7c2.4,0,3,1.6,3,3.2v2.9c0,0.7,0,1.3,0.1,1.9
		H135.4z M135.2,176.1c-1.5,0-3.3,0.2-3.3,1.8c0,0.9,0.6,1.4,1.3,1.4c1,0,1.7-0.6,1.9-1.3c0-0.1,0.1-0.3,0.1-0.5V176.1z"/>
	<path id="XMLID_98_" class="st2" d="M145.6,168.6v9.4c0,0.7,0,1.5,0.1,2h-1.3l-0.1-1.4h0c-0.4,0.9-1.4,1.5-2.7,1.5
		c-1.9,0-3.3-1.6-3.3-4c0-2.6,1.6-4.2,3.5-4.2c1.2,0,2,0.6,2.4,1.2h0v-4.7H145.6z M144.2,175.4c0-0.2,0-0.4-0.1-0.6
		c-0.2-0.9-1-1.6-2-1.6c-1.5,0-2.3,1.3-2.3,3c0,1.6,0.8,2.9,2.3,2.9c1,0,1.8-0.6,2.1-1.7c0-0.2,0.1-0.4,0.1-0.6V175.4z"/>
	<path id="XMLID_101_" class="st2" d="M154.7,168.6v9.4c0,0.7,0,1.5,0.1,2h-1.3l-0.1-1.4h0c-0.4,0.9-1.4,1.5-2.7,1.5
		c-1.9,0-3.3-1.6-3.3-4c0-2.6,1.6-4.2,3.5-4.2c1.2,0,2,0.6,2.4,1.2h0v-4.7H154.7z M153.3,175.4c0-0.2,0-0.4-0.1-0.6
		c-0.2-0.9-1-1.6-2-1.6c-1.5,0-2.3,1.3-2.3,3c0,1.6,0.8,2.9,2.3,2.9c0.9,0,1.8-0.6,2.1-1.7c0-0.2,0.1-0.4,0.1-0.6V175.4z"/>
	<path id="XMLID_104_" class="st2" d="M162.2,170v2.2h2v1.1h-2v4.2c0,1,0.3,1.5,1.1,1.5c0.4,0,0.6,0,0.8-0.1l0.1,1.1
		c-0.3,0.1-0.7,0.2-1.3,0.2c-0.7,0-1.2-0.2-1.5-0.6c-0.4-0.4-0.5-1.1-0.5-2v-4.3h-1.2v-1.1h1.2v-1.9L162.2,170z"/>
	<path id="XMLID_106_" class="st2" d="M170.1,180.1l-0.1-1h0c-0.4,0.6-1.3,1.2-2.4,1.2c-1.6,0-2.4-1.1-2.4-2.2
		c0-1.9,1.7-2.9,4.7-2.9v-0.2c0-0.6-0.2-1.8-1.8-1.8c-0.7,0-1.5,0.2-2,0.6l-0.3-0.9c0.6-0.4,1.6-0.7,2.6-0.7c2.4,0,3,1.6,3,3.2v2.9
		c0,0.7,0,1.3,0.1,1.9H170.1z M169.9,176.1c-1.5,0-3.3,0.2-3.3,1.8c0,0.9,0.6,1.4,1.3,1.4c1,0,1.7-0.6,1.9-1.3
		c0-0.1,0.1-0.3,0.1-0.5V176.1z"/>
	<path id="XMLID_109_" class="st2" d="M173.4,178.6c0.4,0.3,1.2,0.6,1.9,0.6c1,0,1.5-0.5,1.5-1.2c0-0.7-0.4-1-1.4-1.4
		c-1.4-0.5-2.1-1.3-2.1-2.2c0-1.3,1-2.3,2.7-2.3c0.8,0,1.5,0.2,1.9,0.5l-0.4,1c-0.3-0.2-0.9-0.5-1.6-0.5c-0.8,0-1.3,0.5-1.3,1.1
		c0,0.6,0.5,0.9,1.5,1.3c1.4,0.5,2,1.2,2,2.4c0,1.4-1.1,2.3-2.9,2.3c-0.9,0-1.6-0.2-2.2-0.5L173.4,178.6z"/>
	<path id="XMLID_111_" class="st2" d="M181.3,175.8L181.3,175.8c0.2-0.3,0.5-0.6,0.7-0.9l2.3-2.7h1.7l-3,3.2l3.4,4.6h-1.7l-2.7-3.7
		l-0.7,0.8v2.9h-1.4v-11.4h1.4V175.8z"/>
</g>
</svg>
