<?xml version="1.0" encoding="utf-8"?>
<!-- Generator: Adobe Illustrator 19.0.0, SVG Export Plug-In . SVG Version: 6.00 Build 0)  -->
<svg version="1.1" id="Layer_1" xmlns="http://www.w3.org/2000/svg" xmlns:xlink="http://www.w3.org/1999/xlink" x="0px" y="0px"
	 viewBox="0 0 200 200" style="enable-background:new 0 0 200 200;" xml:space="preserve">
<style type="text/css">
	.st0{fill:#ffffff;}
</style>
<g id="XMLID_1_">
	<g id="XMLID_4_">
		<path id="XMLID_8_" class="st0" d="M180.3,46.2L156,21.9c-1.4-1.4-3.8-1.4-5.2,0l-15.4,15.4c-1.4,1.4-1.4,3.8,0,5.2l24.3,24.3
			c1.4,1.4,3.8,1.4,5.2,0l15.4-15.4C181.8,50,181.8,47.6,180.3,46.2z"/>
		<path id="XMLID_9_" class="st0" d="M159.5,67l-24.3-24.3c-1.6-1.6-1.6-4.2,0-5.8l15.4-15.4c1.6-1.6,4.2-1.6,5.8,0l24.3,24.3
			c1.6,1.6,1.6,4.2,0,5.8L165.2,67C163.6,68.6,161.1,68.6,159.5,67z M155.7,22.1c-1.3-1.3-3.4-1.3-4.7,0l-15.4,15.4
			c-1.3,1.3-1.3,3.4,0,4.7L160,66.5c1.3,1.3,3.4,1.3,4.7,0l15.4-15.4c1.3-1.3,1.3-3.4,0-4.7L155.7,22.1z"/>
	</g>
	<g id="XMLID_6_">
		<path id="XMLID_2_" class="st0" d="M154.8,72.2l-24.8-24.8c-1.3-1.3-3.4-1.3-4.7,0l-95.9,95.9l0,0L20,178.1
			c-0.7,2.5,1.6,4.7,4.1,4.1l34.8-9.3l0,0l95.9-95.9C156.1,75.6,156.1,73.5,154.8,72.2z"/>
		<path id="XMLID_3_" class="st0" d="M20.6,181.6c-0.9-0.9-1.3-2.3-1-3.6l9.3-34.5l-0.1-0.1l0.2-0.3L125,47.1c1.4-1.4,3.8-1.4,5.2,0
			L155.1,72c1.4,1.4,1.4,3.8,0,5.2l-96.2,96.2l-0.1-0.1l-34.5,9.3C22.9,182.9,21.5,182.5,20.6,181.6z M29.7,143.5l-9.3,34.7
			c-0.3,1,0,2.1,0.8,2.8s1.8,1,2.8,0.8l34.7-9.3l95.8-95.8c1.1-1.1,1.1-3,0-4.2l-24.8-24.8c-1.1-1.1-3-1.1-4.2,0L29.7,143.5z"/>
	</g>
</g>
</svg>
